<svg width="100" height="68" viewBox="0 0 100 68" fill="none" xmlns="http://www.w3.org/2000/svg">
<path d="M68.3542 6.87472C67.875 6.87472 67.55 6.93305 67.2125 7.01222V7.06638H67.2708C67.4958 7.49972 67.8792 7.81638 68.1625 8.20388C68.3875 8.64972 68.5792 9.09555 68.8042 9.53722L68.8625 9.47472C69.2542 9.19972 69.4458 8.75805 69.4458 8.08722C69.2792 7.89138 69.2542 7.69555 69.1125 7.50388C68.9458 7.22472 68.5875 7.08722 68.3625 6.86638L68.3542 6.87472ZM24.0417 61.8497H20.1792C20.0705 55.7113 19.6952 49.5805 19.0542 43.4747H19.0208L13.1458 61.8497H10.2083L4.375 43.4747H4.33333C3.87706 49.5901 3.6061 55.7179 3.52083 61.8497H0C0.229167 53.658 0.8 45.9747 1.70833 38.808H6.5L12.0625 55.7414H12.0958L17.7083 38.808H22.2708C23.2792 47.2039 23.8708 54.8914 24.0542 61.8497H24.0417ZM40.7792 44.8497C39.2042 53.3705 37.1292 59.5705 34.5625 63.433C32.5542 66.4164 30.3542 67.9039 27.9667 67.9039C27.3292 67.9039 26.55 67.7122 25.6083 67.3289V65.2705C26.0667 65.3414 26.6083 65.3789 27.2167 65.3789C28.3333 65.3789 29.2292 65.0664 29.9125 64.4539C30.7333 63.7039 31.1417 62.8622 31.1417 61.933C31.1417 61.2872 30.8208 59.9747 30.1833 57.9997L25.9583 44.8497H29.75L32.7792 54.683C33.4625 56.9164 33.75 58.4747 33.6333 59.3622C35.3 54.9289 36.4583 50.083 37.1125 44.8497H40.7792ZM92.1333 61.8497H81.175V38.808H84.8625V59.0164H92.1333V61.8497ZM78.3 62.4122L74.0667 60.3289C74.4417 60.0122 74.8042 59.6705 75.1292 59.2872C76.9333 57.1789 77.8292 54.0455 77.8292 49.8997C77.8292 42.2747 74.8375 38.458 68.85 38.458C65.9167 38.458 63.625 39.4247 61.975 41.3622C60.1833 43.4789 59.2833 46.5956 59.2833 50.7164C59.2833 54.7664 60.075 57.7414 61.675 59.633C63.1333 61.3414 65.3292 62.1955 68.2708 62.1955C69.3708 62.1955 70.3792 62.058 71.2917 61.7872L76.8125 65.0039L78.3125 62.4122H78.3ZM64.5833 57.2372C63.6458 55.7372 63.1792 53.3205 63.1792 50.0039C63.1792 44.1997 64.9458 41.2955 68.4708 41.2955C70.3167 41.2955 71.6792 41.9914 72.5417 43.3789C73.475 44.8872 73.9417 47.2789 73.9417 50.558C73.9417 56.408 72.175 59.3414 68.65 59.3414C66.7958 59.3414 65.4417 58.6455 64.575 57.258L64.5833 57.2372ZM57.675 55.4664C57.675 57.4247 56.9583 59.033 55.525 60.283C54.0917 61.533 52.1792 62.158 49.7583 62.158C47.4958 62.158 45.325 61.4414 43.2042 60.0122L44.1917 58.0289C46.0167 58.9455 47.6625 59.3955 49.15 59.3955C50.5333 59.3955 51.6208 59.0914 52.4125 58.4789C52.8082 58.1806 53.1277 57.7929 53.3449 57.3476C53.5622 56.9022 53.671 56.4118 53.6625 55.9164C53.6625 54.5414 52.7042 53.3747 50.9625 52.3955C49.3458 51.508 46.1167 49.658 46.1167 49.658C44.3583 48.3789 43.4833 47.008 43.4833 44.7539C43.4833 42.8789 44.1375 41.3789 45.4417 40.233C46.7542 39.0747 48.4417 38.5039 50.525 38.5039C52.6583 38.5039 54.6083 39.0705 56.3583 40.2122L55.4708 42.1955C54.0725 41.5813 52.5647 41.2553 51.0375 41.2372C49.8583 41.2372 48.9458 41.5205 48.3125 42.0955C47.9911 42.3618 47.732 42.6953 47.5535 43.0725C47.3749 43.4497 47.2813 43.8615 47.2792 44.2789C47.2792 45.6455 48.2542 46.8205 50.0542 47.8205C51.6917 48.7164 55 50.6122 55 50.6122C56.8042 51.883 57.7 53.2372 57.7 55.4789L57.675 55.4664ZM96.7667 31.083C94.5375 31.0247 92.8083 31.2497 91.3625 31.8664C90.9458 32.033 90.2792 32.0331 90.2208 32.5622C90.45 32.7831 90.4833 33.1455 90.6792 33.4539C91.0125 34.0122 91.5875 34.758 92.1208 35.1497C92.7042 35.608 93.2875 36.0497 93.9 36.4414C94.9833 37.108 96.2125 37.5039 97.275 38.1747C97.8792 38.5664 98.4958 39.0622 99.1083 39.4789C99.4125 39.6872 99.6083 40.0622 100 40.1955V40.1122C99.8083 39.8622 99.75 39.4997 99.5625 39.2205C99.2833 38.9414 99.0042 38.6914 98.7292 38.4164C97.9111 37.3383 96.9348 36.3901 95.8333 35.6039C94.9417 34.9955 92.9917 34.1455 92.625 33.1247L92.5708 33.0664C93.1792 33.0122 93.9042 32.7914 94.4875 32.6247C95.4333 32.3747 96.3 32.4289 97.2792 32.183C97.7208 32.0705 98.1667 31.933 98.6125 31.7914V31.5414C98.1125 31.0414 97.7375 30.3622 97.2208 29.8955C95.7787 28.635 94.2407 27.4885 92.6208 26.4664C91.7458 25.908 90.6375 25.5497 89.7167 25.0747C89.3833 24.9081 88.825 24.8247 88.6333 24.5455C88.1333 23.9372 87.8417 23.1289 87.4875 22.4039C86.6693 20.8167 85.9091 19.2004 85.2083 17.558C84.7083 16.4664 84.4042 15.3789 83.7917 14.3789C80.9167 9.64138 77.8042 6.77055 73.0167 3.96222C71.9875 3.37888 70.7542 3.12888 69.45 2.82055C68.7542 2.78722 68.0583 2.73722 67.3667 2.70805C66.9083 2.51222 66.4667 1.98305 66.075 1.72888C64.4917 0.728882 60.3917 -1.43778 59.225 1.42888C58.475 3.23722 60.3375 5.02055 60.9833 5.93722C61.4625 6.57472 62.0667 7.30388 62.4 8.02055C62.5958 8.50388 62.65 8.99972 62.8458 9.50388C63.2875 10.7289 63.7083 12.0955 64.2917 13.2414C64.5958 13.8247 64.9292 14.4372 65.3208 14.9622C65.5458 15.2664 65.9292 15.408 66.0167 15.908C65.625 16.4747 65.6 17.2997 65.375 17.9914C64.375 21.1455 64.7667 25.0455 66.1833 27.3664C66.6292 28.058 67.6917 29.5914 69.1125 29.0039C70.3625 28.5039 70.0875 26.9205 70.4458 25.5247C70.5292 25.1914 70.475 24.9705 70.6458 24.7455V24.8081C71.0375 25.5914 71.4292 26.3372 71.7875 27.1205C72.6458 28.4872 74.1458 29.9039 75.4 30.8497C76.0667 31.3497 76.5958 32.2164 77.4292 32.5247V32.4414H77.3667C77.1875 32.1997 76.95 32.083 76.725 31.8872C76.1967 31.37 75.7091 30.8128 75.2667 30.2205C74.0927 28.6165 73.0517 26.9191 72.1542 25.1455C71.6958 24.2705 71.3125 23.3289 70.9458 22.4664C70.7792 22.133 70.7792 21.6331 70.5 21.4664C70.0833 22.0747 69.4708 22.6039 69.1667 23.3539C68.6375 24.5539 68.5833 26.0289 68.3833 27.5622C68.2708 27.5914 68.325 27.5622 68.2708 27.6205C67.3792 27.4039 67.075 26.4789 66.7417 25.7039C65.9083 23.7247 65.7708 20.5455 66.4917 18.2664C66.6875 17.683 67.5208 15.8414 67.1875 15.283C67.0125 14.7539 66.4625 14.4497 66.1583 14.0205C65.7671 13.462 65.4321 12.866 65.1583 12.2414C64.4917 10.683 64.1583 8.95805 63.4333 7.39972C63.1 6.67888 62.5167 5.92472 62.0417 5.26222C61.5125 4.51222 60.9292 3.98305 60.5083 3.09555C60.3708 2.79138 60.175 2.28722 60.3958 1.95388C60.4542 1.72888 60.5708 1.64138 60.7875 1.57888C61.1542 1.27888 62.1833 1.67055 62.5458 1.83722C63.575 2.25388 64.4417 2.64555 65.3042 3.22888C65.6958 3.50388 66.1167 4.03305 66.6167 4.17055H67.2C68.0917 4.36638 69.0958 4.22888 69.9292 4.47472C71.4083 4.94972 72.7417 5.64138 73.9375 6.39138C77.6222 8.74519 80.6193 12.0312 82.625 15.9164C82.9583 16.5581 83.1042 17.1456 83.4083 17.8122C83.9917 19.1872 84.7125 20.5747 85.3042 21.9039C85.8875 23.2164 86.45 24.5539 87.2875 25.6414C87.7042 26.2247 89.3792 26.5289 90.1292 26.833C90.6833 27.083 91.5458 27.3122 92.0458 27.6164C93.0042 28.1997 93.9375 28.8664 94.8375 29.508C95.2958 29.8247 96.6833 30.5205 96.7667 31.083Z" fill="black"/>
</svg>
